<svg version="1" xmlns="http://www.w3.org/2000/svg" width="682.667" height="682.667" viewBox="0 0 512.000000 512.000000"><path d="M108 2c-.6.4-1 27.2-1.1 66.1 0 36.7-.5 68-1 71.3-1.7 10.5-6.2 16.5-14.1 19.2-12 3.9-26.1-2.2-33.4-14.5-1-1.7-2.2-3-2.6-2.9-1.8.7-28.8 21.2-28.8 21.9 0 .5 1.9 3.6 4.2 7 5.2 7.5 14.4 15.9 22 19.9 13.6 7.3 36 9.6 54.2 5.5 2.5-.5 1.4.9-7 9.2-5.4 5.3-10.3 9.6-10.9 9.4-.5-.1-.7 0-.3.4.4.4-19.6 20.9-44.3 45.6L0 305v106h51.7l-.1 25-.1 25 2.5.1h26.1l23.6.1v50.3l52.8.3 52.7.2 20.9-20.8c11.5-11.5 21.1-20.7 21.4-20.4.3.3.5-.1.5-.9s.9-2 2-2.7c1.2-.7 1.8-1.7 1.5-2.2-.3-.6-.1-1 .5-1s6-4.9 12-10.9 11.2-10.6 11.5-10.3c.3.3.5 0 .5-.6 0-.9 34.5-36.2 35.4-36.2.1 0 .3 23.5.3 52.2.1 28.8.2 52.6.2 53 .1.5 9.8.8 21.6.8 19.8 0 21.5-.1 21.5-1.8.1-.9.1-18.5.1-38.9.1-22.8.5-37.5 1-37.9 1.2-.7 63.4-.8 64.6-.1.4.3.8 18.1.8 39.6V512l22-.2 22-.3v-94c.1-51.7-.1-94.7-.3-95.6-.3-1.4-3-1.6-21.7-1.6-14.7 0-21.5.3-21.8 1.1-.2.6-.3 17.3-.2 37.1v36l-32-.1c-17.6-.1-32.5-.2-33.2-.3-.8-.1-1.2-4.5-1.1-16.1v-16l11.1-11c6.1-6 11.4-11 11.9-11 .4 0 .8-.4.8-.9 0-.6 26.7-27.6 59.3-60.2 32.5-32.6 59.1-59.6 58.9-60.1-.1-.5.2-.7.8-.3.5.3 1.3-.1 1.6-.9.3-.9 1-1.3 1.5-1 .5.3.9.2.9-.3 0-1.4 4.7-6.3 5.4-5.6.3.4.5-23.8.4-53.7l-.3-54.4-24.2-.1c-13.3 0-24.4-.3-24.8-.7-.4-.3-.6-11.9-.6-25.7L462 51h-53V1H304l-44 44c-24.2 24.2-43.7 44-43.3 44 .5 0-.3.6-1.6 1.3-1.3.6-2.3 1.6-2.2 2.1.1.5-.8 1.4-2.1 2.1-1.3.6-2.2 1.7-2.1 2.3.2.7-.2 1.2-.9 1.2-1.5 0-17.8 16.7-17 17.4.3.3 0 .6-.7.6-1.5 0-10.1 8.6-9.4 9.4.4.3.1.6-.6.6s-8.3 7.2-17 16-16.1 16-16.5 16c-.3 0-.1-1.1.4-2.6.6-1.4 1.2-3.8 1.5-5.5.3-1.6.8-4.4 1.1-6.2.8-3.8 1.2-141.6.4-141.8-1.9-.5-41.3-.3-42 .1z"/></svg>